<svg width="199" height="48" viewBox="0 0 199 48" xmlns="http://www.w3.org/2000/svg">
    <g fill="none" fill-rule="evenodd">
        <path d="M113.133.028v10.738h9.857v8.976h-9.81v12.12c0 3.876.444 6.72 5.298 6.72 1.177 0 3.578-.147 4.56-1.03v9.318c-2.454.878-5.25 1.125-7.847 1.125-7.451 0-13.24-3.04-13.24-10.985V19.747h-7.16V10.82h7.16V.029h11.182zm29.766 9.907.347.003c10.246.163 16.67 7.582 16.67 19.027l.005 3.529h-25.993c.882 4.27 4.116 7.014 8.433 7.014 3.678 0 6.131-1.861 7.994-4.412l7.846 5.737c-3.582 4.564-9.466 7.162-15.302 7.162-11.181 0-20.157-7.456-20.157-19.03 0-11.573 8.976-19.03 20.157-19.03zm-62.133-.004.387.002c4.66.063 9.807 1.272 13.052 4.756l-6.912 6.768c-1.668-2.01-3.826-3.04-6.475-3.04-1.863 0-4.12.836-4.12 2.992l.005.154c.37 5.147 18.874.81 18.874 14.455 0 9.27-8.975 11.968-16.722 11.968-5.102 0-10.69-1.278-14.273-4.906l6.817-7.551c2.106 2.55 4.56 3.975 7.895 3.975 2.553 0 5.102-.684 5.102-2.598 0-5.837-18.88-.883-18.88-14.713 0-8.534 7.599-12.262 15.25-12.262zm61.052 8.045c-4.903 0-7.6 3.386-7.895 6.867h14.76c.1-3.728-2.845-6.867-6.865-6.867zM18.366.014 7.184 0 7.17 10.79l-7.16-.01L0 19.71l7.113.009-.02 17.263c-.009 7.945 5.775 10.99 13.23 10.999 2.597 0 5.394-.242 7.847-1.12l.01-9.319c-.982.884-3.388 1.026-4.564 1.026-4.855-.005-5.293-2.85-5.289-6.725l.015-12.11 9.857.01.01-8.977-9.858-.01L18.366.02V.014zM47.14 9.902c-5.884-.005-11.872 1.947-15.993 5.818l5.974 6.136c2.406-2.646 5.45-4.308 9.128-4.308 3.873.005 7.16 2.56 7.15 6.53-9.318-.01-24.568.167-24.582 12.723-.01 7.31 6.07 11.19 12.887 11.199 4.56.005 9.075-1.558 11.534-5.428h.147v4.511l10.296.01.019-18.441c.014-12.063-3.511-18.736-16.556-18.755l-.004.005zm6.26 23.67c0 4.512-4.121 6.815-8.533 6.815-2.453 0-5.297-1.277-5.297-3.975 0-4.953 7.603-5.248 11.033-5.248h2.797v2.408z" fill="#13548F"/>
        <path d="M198.994 30.521c-.167-.042.043.166 0 0-.124-1.481-.21-2.968-.581-4.572h-.167c.081-.864-.247-1.194-.29-1.567-.371-1.44-.829-2.265-1.162-3.459-.371 0 .21-.453 0-.576-.247.208-.91-.042-.58.165-.415.538-.291-.66-.291-1.028.414.207.786.826 1.119.783.333-.042.638-.76.514-1.09-.124-.33-.181.1-.762.595-.457-.043-.414-.906-.29-1.152.124-.245-.705-.33-1.286-.288-.538-1.194-1.861-1.566-2.609-2.595-.166 0-.166-.123-.29-.165-.043-.123-.124-.123-.124-.288-.29-.538-.747.042-.871-.165.167-.043.29-.165.29-.41-1.328-1.648-3.313-2.474-5.056-3.007.081-.123.21-.453.167-.453-.538.085-.538-.33-.995-.288-.21.123-.21.453-.58.41-.372-.33.209-.287.166-.698-.29-.495-1.2.368-1.162-.287-.495-.246-2.028-.288-2.318.122-.167.043-.415-.042-.457.165-1.657.699-4.223.538-6.09.991.334-.207 1.243-.453 1.286-.575-.538-.741-1.78.207-1.576.698-1.904.043-2.942 1.77-4.475 1.279-.124-.043-.21-.043-.414-.245-.167-.166-.21-.576-.334-.496-.21.208-.123.618-.166.991-.124.538-.995.864-.995.864s-.372.165-.581 0v-.123s0-.208-.124-.288c-.457 0-.91.698-.58.991.37.33-.291.864-.415 1.151-.619.043-.124-.618-.124-.863-.29.042-.333-.165-.58-.123 0 .165-.248.085-.291.288-.043.208.043.991-.29 1.279-.5.208-.953.495-.872 1.316-.21.33-1.366.454-.995.864.21.41.705.538.705 1.151.705.369-.124 1.194-.29 1.605-.043.165-.167.288-.415.288-.457 1.732-.661 3.666-1.575 4.903-.372 1.44-.662 3.624-.29 5.313.456 2.926 1.575 5.229 2.898 7.334.748 1.028 1.41 2.185 2.61 2.718h.123c.124.33.62.245.871.41h.124c.372.246.457.826.871.991v.165c.995.538 1.781 1.317 3.024 1.567.414.123.828.246.995.576 1.533.368 2.152 1.647 4.184 1.151h1.862c.828.085 1.49-.042 2.152-.122.08.165.043.948.124 1.151.08.208.87 0 .87 0 .334.043.334-.245.748-.165-.043.245.124.288.29.288h.415c.29.042 1.162-.246 1.452-.288.871-.496 1.452-.043 2.319.165.042-.042-.124-.288-.124-.373-.043-.495.58-.698.995-.906 0-.122.166-.122.29-.165.043-.245-.124-.288-.29-.288-.043-.288.662-.207.457.165.08 0 .166 0 .247-.042.334-.123.415-.538.91-.538.995-.288 1.614-.906 2.318-1.44.167-.165.124-.287-.166-.287.042-.165.29-.165.29 0 .414 0 .167-.699.414-.864.21.085-.043.165 0 .453.414-.042.457-.99.995-.863 0-.043-.043-.043-.043-.085.248-.123.415-.368.662-.496.414-.288.786-.66.995-1.151-.58-.08.581-.208 0-.288.581-.208.886-.665 1.162-1.151-.262.462 2.147-3.997 2.028-9.023m-11.955 15.247c-.419-.043-1 .165-1.209-.08-.124-.166-.21-.458-.252-.33.124.702.21 1.16-.457 1.74-.253-.207-.043-.665.166-.872.043.165.253.33.29.122-.29 0-.166-.665-.456-.415-.543.83-1.043 1.16-1.586 1.576-.333-.458-.961-.495-1.337 0-.167-.208-.167-.373 0-.58 1.295-1.119 3.17-1.661 4.799-2.487.252.745-.167.873.042 1.326m.586-.58c-.252-.373-.167-.208-.457-.874.29-.08.376-.33.752-.292.167 0 .333.042.29.292-.29.208-.461.538-.585.873m.586 1.161c-.043.123.042.123.166.165-.376.416-.29-.703.29-.58-.08.123-.166.25-.123.415.124.043.124-.042.124-.122.29.165-.167.292-.462.122m7.593-27.714c.253.122 0 .25 0 .415.124.042.124-.042.124-.165.333.123-.333.415-.124.873-.252.458-.252-1.038 0-1.119" fill="#9DBD1F"/>
        <path d="M164.81 28.02a.843.843 0 0 0-.604.25.828.828 0 0 0-.252.6.82.82 0 0 0 .252.6c.167.169.371.25.605.25a.843.843 0 0 0 .604-.25.828.828 0 0 0 .253-.6.82.82 0 0 0-.253-.6.816.816 0 0 0-.604-.25zm8.742.666c.171-.175.295-.312.362-.406l-1.053-.788a2.986 2.986 0 0 1-1.014.906c-.4.217-.861.325-1.39.325a3.519 3.519 0 0 1-1.438-.283 3.13 3.13 0 0 1-1.076-.778 3.43 3.43 0 0 1-.676-1.138 3.964 3.964 0 0 1-.233-1.373c0-.519.081-1 .248-1.453.162-.453.395-.845.695-1.185.3-.34.657-.599 1.076-.797a3.313 3.313 0 0 1 1.409-.293c.424 0 .833.09 1.233.27.4.179.728.438.985.778l1.038-.788a3.309 3.309 0 0 0-1.433-1.071 4.808 4.808 0 0 0-1.785-.35c-.71 0-1.357.118-1.942.364-.586.24-1.09.58-1.51 1.014a4.63 4.63 0 0 0-.98 1.553c-.234.6-.353 1.25-.353 1.958 0 .58.11 1.147.324 1.713a4.725 4.725 0 0 0 2.433 2.605c.585.278 1.238.415 1.966.415.529 0 .99-.066 1.395-.203a4.657 4.657 0 0 0 1.033-.467c.286-.174.514-.354.686-.528zm2.014-.189c.418.43.923.77 1.509 1.015a4.964 4.964 0 0 0 1.933.368c.7 0 1.342-.123 1.933-.368a4.484 4.484 0 0 0 1.509-1.015c.419-.43.747-.94.985-1.524a5.01 5.01 0 0 0 .357-1.902 5.01 5.01 0 0 0-.357-1.902 4.687 4.687 0 0 0-.985-1.524 4.532 4.532 0 0 0-1.51-1.015 4.964 4.964 0 0 0-1.932-.368c-.7 0-1.343.123-1.933.368a4.532 4.532 0 0 0-1.51 1.015c-.418.43-.747.94-.985 1.524a5.01 5.01 0 0 0-.357 1.902c0 .68.119 1.317.357 1.902s.567 1.095.986 1.524zm.228-4.842c.162-.443.4-.83.7-1.156.305-.325.666-.59 1.09-.783a3.4 3.4 0 0 1 1.428-.293 3.4 3.4 0 0 1 1.429.293 3.36 3.36 0 0 1 1.79 1.94 4.1 4.1 0 0 1 .247 1.415c0 .5-.08.972-.247 1.416-.162.443-.4.83-.7 1.156-.305.325-.667.59-1.09.783a3.4 3.4 0 0 1-1.429.293 3.4 3.4 0 0 1-1.428-.293 3.36 3.36 0 0 1-1.79-1.94 4.1 4.1 0 0 1-.248-1.415c0-.5.081-.972.248-1.416zm16.768-3.161-2.895 6.932h-.052l-2.919-6.932h-1.852v9.154h1.243v-7.526h.029l3.099 7.526h.828l3.1-7.526h.028v7.526h1.243v-9.154h-1.852zm-21.872 18.03a.843.843 0 0 0-.604.25.828.828 0 0 0-.253.6.82.82 0 0 0 .253.6c.166.17.371.25.604.25a.843.843 0 0 0 .605-.25.828.828 0 0 0 .252-.6.82.82 0 0 0-.252-.6.816.816 0 0 0-.605-.25zm5.537-7.526-4.046 9.155h1.452l.909-2.265h4.37l.92 2.265h1.451l-3.927-9.155h-1.129zm-1.247 5.804 1.738-4.2h.023l1.71 4.2h-3.476.005zm12.388-.188c0 .283-.038.58-.12.887-.08.306-.209.59-.39.844-.18.26-.419.468-.714.633-.295.165-.657.245-1.09.245-.433 0-.795-.08-1.09-.245a2.098 2.098 0 0 1-.714-.633c-.181-.26-.31-.542-.39-.844a3.67 3.67 0 0 1-.12-.887v-5.611h-1.247v5.804c0 .533.09 1.02.271 1.454.181.434.433.811.752 1.132.32.316.695.566 1.129.736.433.175.9.26 1.4.26.5 0 .966-.085 1.4-.26.432-.174.808-.42 1.127-.736.32-.316.572-.694.753-1.132.18-.435.271-.92.271-1.454v-5.804h-1.243v5.61h.015z" fill="#FFF"/>
    </g>
</svg>
